<svg xmlns="http://www.w3.org/2000/svg" viewBox="0 0 256 256">
  <defs>
    <linearGradient id="gbg" x1="0%" y1="0%" x2="100%" y2="100%">
      <stop offset="0%" stop-color="#F5F5F5"/>
      <stop offset="100%" stop-color="#E0E0E0"/>
    </linearGradient>
  </defs>
  <!-- 背景 -->
  <rect width="256" height="256" rx="40" fill="#FAFAFA"/>
  <!-- カード影 -->
  <rect x="22" y="26" width="100" height="100" rx="14" fill="#00000018"/>
  <rect x="134" y="26" width="100" height="100" rx="14" fill="#00000018"/>
  <rect x="22" y="138" width="100" height="100" rx="14" fill="#00000018"/>
  <rect x="134" y="138" width="100" height="100" rx="14" fill="#00000018"/>
  <!-- 写真1: 青空 -->
  <rect x="20" y="20" width="100" height="100" rx="14" fill="#64B5F6"/>
  <polygon points="70,52 35,108 105,108" fill="white" opacity="0.6"/>
  <circle cx="88" cy="46" r="12" fill="#FFF176"/>
  <!-- 写真2: 夕焼け -->
  <rect x="136" y="20" width="100" height="100" rx="14" fill="#FF8A65"/>
  <polygon points="186,48 151,108 221,108" fill="#BF360C" opacity="0.7"/>
  <circle cx="174" cy="44" r="14" fill="#FFEE58"/>
  <!-- 写真3: 緑 -->
  <rect x="20" y="136" width="100" height="100" rx="14" fill="#81C784"/>
  <rect x="20" y="196" width="100" height="40" rx="0" fill="#388E3C"/>
  <polygon points="70,148 36,196 104,196" fill="#2E7D32"/>
  <polygon points="95,160 61,196 129,196" fill="#388E3C"/>
  <!-- 写真4: 夜 -->
  <rect x="136" y="136" width="100" height="100" rx="14" fill="#1A237E"/>
  <circle cx="186" cy="166" r="14" fill="#FFF9C4" opacity="0.9"/>
  <circle cx="162" cy="178" r="3" fill="white" opacity="0.8"/>
  <circle cx="205" cy="172" r="2" fill="white" opacity="0.8"/>
  <circle cx="175" cy="190" r="2.5" fill="white" opacity="0.7"/>
  <circle cx="196" cy="192" r="2" fill="white" opacity="0.6"/>
  <!-- 区切り線 -->
  <rect x="116" y="20" width="24" height="216" rx="12" fill="white"/>
  <rect x="20" y="116" width="216" height="24" rx="12" fill="white"/>
</svg>
